<svg id="Layer_1" data-name="Layer 1" xmlns="http://www.w3.org/2000/svg" viewBox="0 0 100 100"><defs><style>.cls-1{fill:#662d91;fill-rule:evenodd;}</style></defs><title>Paint Slpatter</title><path class="cls-1" d="M57.23,6c-.06.31-.64.76-.58,1.22l-.14-.07a5.09,5.09,0,0,0-.78,1.56,16.94,16.94,0,0,1,2.84.91c.11.06,0,.19.08.26s.46.19.62.05c.28.32.15.66.36,1.05-.54.9-.18,1.94-1.09,2.54-.12.53.36.9.67,1.32.19-.13.26-.05.49,0,.6.07,1.18-.23,1.71.23,0,.34.94.66,1,.85a2.48,2.48,0,0,1,.24.18c.15.19.13.36.3.48a1.31,1.31,0,0,0,.76.22c.17.09,0,0,0,.15a6.21,6.21,0,0,0,1.88,1.78c-.1.13.12.18,0,.3,1.28.52,1.58,2.51,3.09,2.13,0,0,.31,0,.26.08,1.3-.4,2.63-1.22,4.16-1.24.77.31.82.79,1.09,1.22-.06.15-.15.32.05.4-1.09,1.4-3,1-4.57,1.13-.08.24-.39.25-.52.45s.06.12,0,.23-.29.2-.16.35.25.23.25.46c.23.13.4.27.44.45a3.5,3.5,0,0,0,3.64-.1,2.8,2.8,0,0,0,1.85-1.06,15.21,15.21,0,0,1,3-1.32,6.09,6.09,0,0,0,1.81-.32,11.73,11.73,0,0,0,1.59-.16,20.71,20.71,0,0,1,2-.93c.39-.66,1.44-.83,1.78-1.64.08-.11.22,0,.31-.11,0-.24.35-.27.3-.39.81,0,1.68-.9,2.55-1.14a2.82,2.82,0,0,1,2-.82c.37.26,1,.25,1.24.7.12.19-.05.51.23.6-.21.06-.15.39-.26.52a7.47,7.47,0,0,1-1.2,1.07c-.4.25-1,.34-1.46.61a22.16,22.16,0,0,1-3,1.49c-.23.09-.67.07-.71.29-.39.09-.93.26-1.08.69-.19-.11-.12.12-.18.19s0-.07-.06-.09a.81.81,0,0,0-.14.42c-.1.1,0-.1-.11-.11-.2.38-1,.91-1.38,1.46-.51.1-1.25,1-1.08,1.46.19.06.3-.17.51-.07a1.07,1.07,0,0,0,.25,1.92A7.18,7.18,0,0,0,84,28c.06.23.54.38.59.69,0,.57-.55,1.21-.84,1.74-.1.1,0-.1-.11-.11a7,7,0,0,1-4.31,2.73c-1.24,1.78-3.39,5.31-1.09,6.77a6.91,6.91,0,0,0,4.27.62c.67.15,1.23,0,1.88,0,2.17-.3,4.14-1.24,6.34-1.47a1.35,1.35,0,0,0,1.06.11.11.11,0,0,0,.12,0c.1,0,.1.09.15.13.93.47,1.79.07,2.63,0s1.5,0,2.23.06a3.08,3.08,0,0,1,1.32.08c.09,0,.12-.12.19-.12s0,.08.2.16c-.22.59-1,.49-1.45.61a35.43,35.43,0,0,1-4.61.9c-.84.51-1.75.81-2.6,1.32-2.57.25-5.2.3-7.74.65A19.48,19.48,0,0,0,80.4,44c-.79.73.18,1.51.7,2.15-.12.31.18.48.31.65a1.52,1.52,0,0,1-1.52.14c-.5-.28-1.22-1.06-1.85-.67a2,2,0,0,0-.68,1.77,3.49,3.49,0,0,0,1.31,1.75c.21.17.07.42.39.53.08.63,1.18,1.24,1.9,1.84a4,4,0,0,0,1.57.54c.46.2,1,.53,1.57.75a1.93,1.93,0,0,1,.23,0c.3.16.52.51.78.67a1.89,1.89,0,0,1,.8.53c1.2.34,2.82,1.39,4,1.81,0,.07,0,.05,0,.18.56.24,1,0,1.48,0a6.09,6.09,0,0,1,1.83-1.4,8.19,8.19,0,0,1,4.25.06,7.29,7.29,0,0,1,1.74,1,2.78,2.78,0,0,1,.84,2.11,1.73,1.73,0,0,1-.06,1.06,9,9,0,0,1-1,1.23A5.61,5.61,0,0,1,97.77,62c-.15.11-.46.21-.69.35a5.76,5.76,0,0,1-4.47.47c-1.41-.53-1.42-1.12-1.79-2.11a3.74,3.74,0,0,1-.39-1.89C89,58,87.66,57,86.15,56.31c-.46-.2-1.31-.48-1.6-1-.86-.29-1.31-.71-2.18-1-.06,0,0-.1-.1-.22a8.76,8.76,0,0,1-3.07-1.79c0,.08-.11,0-.25,0-.68-.53-1.57-.74-2.06-.24-.14,0-.31-.1-.4.06.07.32-.1.79,0,.9-.26,0-.11.27-.43.21-.13.15.13.2,0,.34-.14,0-.28-.09-.35.09,0,.36.45.63.67.94a.63.63,0,0,0,.2.65c-.06.14-.23,0-.18.18s.15-.06.28,0c-.12.71-.12,1-.21,1.8a.69.69,0,0,0-.54.37c-.82,0-1.4.06-2.21.12a7.78,7.78,0,0,0-1.39,1.57c-.84,1.48,1.21,2.17,1.95,3.11-.09-.11.09.19.1.22.09.26-.1.49.08.75-.33.33-.52.84-1,.88a2.41,2.41,0,0,1-2-1.6c-.42-.28-.71-.86-1.28-1.2a2.73,2.73,0,0,0-2.56,0c-.25.25-.17.61-.31,1-.48,0-.3.73.15.72-.27.75.38,1.27.19,2,0,.13.16.1.27.14-.23.14.15.4-.1.66,0,0,.07,0,.06.08a2.49,2.49,0,0,0,.77.89c.75.54,1,1.38,1.63,2,0,.8,1.31,1.11,2.26,1.75.09.07.1.19.19.27.44.38,1,.57,1.37.86a3.16,3.16,0,0,1,.77,1.37c-.17-.06-.35-.15-.47,0s.25.33.49.47A1.84,1.84,0,0,1,72.67,75c-3.21-1.16-3.94-3.17-5.39-4.88,0-.11-.11-.16,0-.28-.57-.46-.58-1.06-1.15-1.51a21,21,0,0,0-2.07-3.79c-.52-.5-1.63-.71-1.86-1.33-.76-.35-1-1.23-1.82-1.59-1-.43-2.25-.68-3.41-1s-2.83-.39-3.25.72c0,.09,0,.16,0,.24s-.25.27,0,.42c-.28.14-.76,0-1.13.18A2,2,0,0,0,52,63.5c-.11-.15.06-.36-.18-.47a.38.38,0,0,0,0,.72c.23,0-.06-.33.17-.18-.09.3-.29.63,0,.82,0,.08-.16,0-.21.06s.38.08.53.11c0,.21-.63.08-.62,0-.43.22-.86.44-1.28.7-.29,1.08-1.71,1.77-2.3,2.67-.44,0-.76.37-1.11.63-.17.68.74.66,1.29.72,1.3.15,3.12.68,3.85,1.87a4,4,0,0,1,.25,1.05c.14.53.54.82.9,1.33.11,0,.22,0,.25.08-1.2-.3-.83,1.55-.29,1.91a10.83,10.83,0,0,1,0,1.89,3.41,3.41,0,0,0-.17,1.32c.15.78.6,1.25.4,2.16s-.33,1.81-.47,2.59c0,.13-.12.28-.14.42-.07.49.07,1,0,1.5s-.58,1-.53,1.63a22.1,22.1,0,0,0,2.29,4.38c-.69.81,1.28,1.71.55,2.3,0,.44.45.76.52,1.19.57.3.25,1.05.69,1.49.64,0,.72.48.81.91a2.34,2.34,0,0,1,1.3,2.13,6.43,6.43,0,0,0-.5.62c-1.56.08-1.83-1.11-2.47-2A10.63,10.63,0,0,1,54.06,96c-.08-.21-.05-.49-.13-.66-.55-1.23-1.81-1.84-2.25-3-.91-1.55-2-3.05-2.3-4.77a2.71,2.71,0,0,1-.48-2.31c.06-1-.75-1.92-1-3a1.73,1.73,0,0,1-.54-1c-.13-.07-.15-.17-.27-.24a5,5,0,0,0-1.06-2.34,17.83,17.83,0,0,1-2.36-2c-.51-.43-1.18-.76-1.65-1.18-.3-.26-.82-.88-1.29-.82-.43-.72-1.31-.26-1.9-.49-.41-.16-.68-.59-1.09-.83s-1.11-.31-1.66-.69c-.18-.17-.11-.39-.39-.53-.42-1.08,1.36-2.25.91-3.5.76-.75.45-1.76-.62-2.27a1.34,1.34,0,0,0-1.08-1.26c-.24-.06.09-.28-.07-.36s-.23,0-.33,0c0-.25-.3-.36-.46-.4-.29-.24-.37-.42-.74-.55.16-.12-.2-.11,0-.23-.84-.37-1.19-1.16-1.81-1.69,0-.31-.24-.55-.47-.79a2.45,2.45,0,0,0-.46-1.38c.32-.23-.11-.62.23-.75-.11-.09-.08-.21-.24-.29a2.68,2.68,0,0,0,.13-1.56.6.6,0,0,0,.17-.67c-.72-.42-.8-1.3-1.48-1.85a1.84,1.84,0,0,0-2.13.27,2.44,2.44,0,0,0-.57.74c-.11.22,0,.47-.09.71-.22.74-1,1.15-1.23,1.6a7.3,7.3,0,0,0-1.07.48,4.4,4.4,0,0,1-.59,1.06,1.63,1.63,0,0,0-.74.32c-.07.16.13.25,0,.43-.39,0-.28-.42-.39-.64a2,2,0,0,1-.36-1.05c.19-.38.23-.63.4-.94a2.37,2.37,0,0,0,.83-.17c.53-.92.27-2.19-1-1.49-.3.17-.61.4-1,.6s-.74.27-1,.42-.29.39-.5.5-.19,0-.25,0c-.76.44-1.87,1.4-2.51.39-1.23-.52-.26-1.54.44-2.16A12.64,12.64,0,0,1,19,54.45c.1-.06.28-.05.42-.11s.31-.27.44-.32.26,0,.35,0a5.34,5.34,0,0,0,.81-.45s-.08-.12,0-.1c-.48-.38-1.77-.7-2.47-1.22a.33.33,0,0,1,.09-.33,9,9,0,0,0-4.79-1.7c-.13.19-.51.18-.49.4-1.26.2-2.12.94-3.36,1.1a4.43,4.43,0,0,1-1.76.73A3.94,3.94,0,0,1,7,53.27c-.06.17-.18.17-.25.3-.11-.1-.12-.13-.25-.07s.09.09.15.13c-.09.8-1,1.49-1.8,1.85-.43.21-.91.55-1.24.28-.59-.47.58-1,.59-1.43a3.74,3.74,0,0,1,2.27-1.17c.92-1.17,2.23-1.11,3.21-2.1a6.2,6.2,0,0,0,2.07-1.33c.32-.54.67-.59,1-1a1.24,1.24,0,0,0-.3-.87c-1.28-.49-2.43-.78-3-1.85A6.21,6.21,0,0,1,9.1,45c-.09-.42,0-.8,0-1.21a3.69,3.69,0,0,0,.5-1.59c0-.11-.22,0-.1-.22a12.19,12.19,0,0,0-2.35-1.31c-.65-.31-1.26-.8-1.72-1S4,39.51,3.29,39.3a14,14,0,0,0-1.51-.45,4.3,4.3,0,0,1-1.72-.39c-.17-.44,0-.76.47-1.06.63-.23,1.3.23,1.79.48.76.38,1.84.2,2.62.58.08,0,.07.11.16.14.42.14,1.07.1,1.61.28s1.15.59,1.68.76a3.29,3.29,0,0,0,2.19,0c.31-.66,1.19-1,1.6-1.35.69,0,1.12-.74,1.79-.76.3-.36.71-.33,1-.81.23-.16.5-.22.68-.52.07,0,.18.09.24,0,.11-.26,0-.74.43-.7-.07-.21.05-.26.12-.48s-.3-.27,0-.51c-.4-.73-1.42-1.31-1.49-2.12a1.45,1.45,0,0,1,2.31-.66c.46-.07,1.29,0,1.36-.56,1.05,0,1.77-.6,2.75-.59,0-.19-.13.06-.2-.05.34-.09.22-.55.55-.81.05-.58,0-1.44.65-1.72.5-.21,1.2.2,1.62-.21a2.19,2.19,0,0,0-.44-1.69c.08,0,.14-.12.19-.23a.86.86,0,0,0-.33-.33c.05-.15.17,0,.24-.09a1.14,1.14,0,0,0-.84-.38c0-.14,0-.38-.19-.26a.93.93,0,0,0,.08-.62c-.22-.12-.36-.22-.37-.46s.14,0,.23,0-.35-.52-.5-.25c0-.35-.5-.62-.55-1,.23-.1.49-.28.52-.07.44,0,.23-.48.26-.62.11.14.07.15.29.2-.07.08-.21.07-.17.19s.22-.21.25-.31c0,.15.19,0,.3,0,.29-.41,1.4-1.09,1.09-1.67.29-.08.06-.46.48-.57-.09,0,0-.23-.1-.43.1-.08.33-.08.53-.16-.18-.16,0-.21-.15-.35.17.2.29-.44.55-.31a.53.53,0,0,1,0-.28c.18.16.39-.09.54-.21a.18.18,0,0,0-.14,0c0-.18.35,0,.47-.09s.1-.15.13-.31c.11,0,.11.09.16.14s.08-.22.18-.29l.21-.06c.16-.2.18-.51.39-.72a8.89,8.89,0,0,1,1.27-.81c1.17.1,2.11-.45,3.24,0-.09-.15.18,0,.08-.12.19,0,.41.1.59.09a1.61,1.61,0,0,1,1.37-.38c.16,0-.06-.18-.05-.2.2-.13.55,0,.78.19.11-.06.09-.18.16,0a8.41,8.41,0,0,1,1-.32c.1.13.17,0,.24.18.81.09,1.59.11,2.41.26a1.73,1.73,0,0,0,1.62.07c.23.17.35,0,.56.07,0-.09,0-.15.1-.17s.08.26.38.25a.28.28,0,0,1-.08.23c1.22.72,2.38-.39,3.22-.95,0-.3.1-.43.15-.74.73-.08,1-1.18,1.76-1.49,1.24-1.19-.12-1.85-.89-2.52a.82.82,0,0,0-.39-1,5.15,5.15,0,0,0-.93-1.68s0,.1,0,.13c-.2-.22,0-.84-.5-1.12,0-.39.19-.77,0-1.17.24-.09.24-.52.16-.73a1.84,1.84,0,0,0,.29-1.54c.11-.13.3-.36.24-.47,1.12-.31,2.09-1.14,3.21-1.45.21-.37.3-.6.6-.78.24.1.35.41.56.56,1.87,1.3,3.16-1.11,4.77-1,.16.18.42.34.5.63,0,.08-.07.17,0,.26.14.29.6.79.82,1.18.1.16.09.42.37.56s.49,0,.78.08c.43-.21.76-.77,1.22-.9a.3.3,0,0,1-.29.18c.24.43-.13.91-.28,1.32.24.43.37,1,1,1s1.86-.92,2.44-1.63c.16-.19.2-.46.34-.64s.23-.14.31-.22c.48-.48.85-1.08,1.33-1.28.26.49-.14,1-.32,1.58a.61.61,0,0,0-.3,0,1.1,1.1,0,0,0-.24.59A13.2,13.2,0,0,0,58.31,4.9a1.45,1.45,0,0,1-1.05,1.42C57.24,6.27,57.4,6.08,57.23,6ZM53.1,73.3s-.11,0-.14.14.07.1.15.14C53.19,73.46,53.26,73.35,53.1,73.3ZM52.24,87a.4.4,0,0,0,.15.73A.56.56,0,0,0,52.24,87ZM55.13,3c.22,0,.49.25.63,0C55.54,3,55.29,2.85,55.13,3Zm1.48,1.57c.13.15.56.29.71.1A1.23,1.23,0,0,0,56.61,4.57ZM47.52,1.05c.25.08.54.29.71.09A1,1,0,0,0,47.52,1.05Zm8.34,8.68A2.24,2.24,0,0,0,58,9.87,4.34,4.34,0,0,0,55.86,9.73ZM82.06,28c.22,0,.48.17.65,0C82.48,28,82.24,27.9,82.06,28Zm1.88,1.78c.1.12.3-.07.22-.16S83.89,29.64,83.94,29.8Zm-8.18,5.9a1.08,1.08,0,0,0,.55.07,1,1,0,0,0,.3-.77C76.13,34.6,75.82,35.28,75.76,35.7Zm3.57,5.21c.64.35,1.39,0,2.09.2,0-.2.36-.13.15-.25A6.44,6.44,0,0,0,79.33,40.91Zm.61,2.1c-.59.18-1,.78-1.3,1.34.27.21.31.64.7.69.14-.37-.23-.61-.11-1C79.57,43.93,80.1,43.4,79.94,43Zm-3.73,3.14c.15.12.24,0,.39.15a1.38,1.38,0,0,0,.3-.39.9.9,0,0,0-.31-.38A.68.68,0,0,0,76.21,46.15ZM94.52,56.37a.88.88,0,0,0,1.09.07A.81.81,0,0,0,94.52,56.37ZM40.68,29.75c.23.06.5.24.67.08C41.11,29.74,40.85,29.61,40.68,29.75Zm55.78,29c.18.2.65.4.77,0C97,58.54,96.6,58.35,96.46,58.72Zm-56-28.64c.22.08.45.22.6.1A1.61,1.61,0,0,0,40.47,30.08Zm.93.53-.18-.09C41.08,30.66,41.34,30.79,41.4,30.61Zm.19,1.62.1-.16L41.51,32C41.39,32.1,41.41,32.19,41.59,32.23ZM19.15,43.75c.24,0,.56.26.74,0C19.63,43.76,19.31,43.5,19.15,43.75ZM47,68.43A.24.24,0,0,0,47,68C46.83,68.12,46.88,68.27,47,68.43Zm0,1.42a2.54,2.54,0,0,0,2.5.3A4,4,0,0,0,47,69.85Zm5.67,9.64a2.89,2.89,0,0,1-.12-2.23c-.08-.18-.26-.72-.57-.51s.07.66.08,1c0,1-.15,2,.93,2.54C53.34,79.94,52.83,79.73,52.68,79.49ZM6,54.11c.07-.07.19.06.24-.09C6.13,53.89,5.91,54,6,54.11Z" transform="translate(0)"/></svg>